ISO-10303-21;
HEADER;
/* Generated by software containing ST-Developer
 * from STEP Tools, Inc. (www.steptools.com) 
 */
/* OPTION: using custom renumber hook */

FILE_DESCRIPTION(
/* description */ ('STEP AP242 Edition 2',
'CAx-IF Rec.Pracs.---Representation and Presentation of Product Manufa
cturing Information (PMI)---4.0---2014-10-13',
'CAx-IF Rec.Pracs.---3D Tessellated Geometry---0.4---2014-09-14','2;1',
'CAx-IF Rec.Pracs.---User Defined Attributes---1.5---2016-08-15'),
/* implementation_level */ '2;1');

FILE_NAME(
/* name */ 'Part Studio 2',
/* time_stamp */ '2026-08-18T14:45:15Z',
/* author */ (''),
/* organization */ (''),
/* preprocessor_version */ 'ST-DEVELOPER v20',
/* originating_system */ 'ONSHAPE BY PTC INC, 1.219',
/* authorisation */ '  ');

FILE_SCHEMA (('AP242_MANAGED_MODEL_BASED_3D_ENGINEERING_MIM_LF { 1 0 10303 442 3 1 4 }'));
ENDSEC;

DATA;
#10=SHAPE_REPRESENTATION_RELATIONSHIP('','',#126,#11);
#11=ADVANCED_BREP_SHAPE_REPRESENTATION('',(#124),#196);
#12=CYLINDRICAL_SURFACE('',#136,0.243541466820381);
#13=CYLINDRICAL_SURFACE('',#137,0.249891466820381);
#14=OVER_RIDING_STYLED_ITEM('',(#105),#100,#103);
#15=OVER_RIDING_STYLED_ITEM('',(#106),#101,#103);
#16=CIRCLE('',#129,0.249891466820381);
#17=CIRCLE('',#130,0.243541466820381);
#18=CIRCLE('',#133,0.249891466820381);
#19=CIRCLE('',#134,0.243541466820381);
#20=ORIENTED_EDGE('',*,*,#44,.F.);
#21=ORIENTED_EDGE('',*,*,#45,.T.);
#22=ORIENTED_EDGE('',*,*,#46,.T.);
#23=ORIENTED_EDGE('',*,*,#47,.F.);
#24=ORIENTED_EDGE('',*,*,#46,.F.);
#25=ORIENTED_EDGE('',*,*,#48,.T.);
#26=ORIENTED_EDGE('',*,*,#49,.T.);
#27=ORIENTED_EDGE('',*,*,#50,.F.);
#28=ORIENTED_EDGE('',*,*,#49,.F.);
#29=ORIENTED_EDGE('',*,*,#51,.F.);
#30=ORIENTED_EDGE('',*,*,#52,.T.);
#31=ORIENTED_EDGE('',*,*,#53,.T.);
#32=ORIENTED_EDGE('',*,*,#54,.F.);
#33=ORIENTED_EDGE('',*,*,#44,.T.);
#34=ORIENTED_EDGE('',*,*,#55,.T.);
#35=ORIENTED_EDGE('',*,*,#52,.F.);
#36=ORIENTED_EDGE('',*,*,#53,.F.);
#37=ORIENTED_EDGE('',*,*,#55,.F.);
#38=ORIENTED_EDGE('',*,*,#47,.T.);
#39=ORIENTED_EDGE('',*,*,#50,.T.);
#40=ORIENTED_EDGE('',*,*,#51,.T.);
#41=ORIENTED_EDGE('',*,*,#48,.F.);
#42=ORIENTED_EDGE('',*,*,#45,.F.);
#43=ORIENTED_EDGE('',*,*,#54,.T.);
#44=EDGE_CURVE('',#56,#57,#64,.T.);
#45=EDGE_CURVE('',#56,#58,#16,.F.);
#46=EDGE_CURVE('',#58,#59,#65,.T.);
#47=EDGE_CURVE('',#57,#59,#17,.T.);
#48=EDGE_CURVE('',#58,#60,#66,.T.);
#49=EDGE_CURVE('',#60,#61,#67,.T.);
#50=EDGE_CURVE('',#59,#61,#68,.T.);
#51=EDGE_CURVE('',#62,#60,#18,.F.);
#52=EDGE_CURVE('',#62,#63,#69,.T.);
#53=EDGE_CURVE('',#63,#61,#19,.T.);
#54=EDGE_CURVE('',#56,#62,#70,.T.);
#55=EDGE_CURVE('',#57,#63,#71,.T.);
#56=VERTEX_POINT('',#171);
#57=VERTEX_POINT('',#172);
#58=VERTEX_POINT('',#174);
#59=VERTEX_POINT('',#176);
#60=VERTEX_POINT('',#180);
#61=VERTEX_POINT('',#182);
#62=VERTEX_POINT('',#186);
#63=VERTEX_POINT('',#188);
#64=LINE('',#170,#72);
#65=LINE('',#175,#73);
#66=LINE('',#179,#74);
#67=LINE('',#181,#75);
#68=LINE('',#183,#76);
#69=LINE('',#187,#77);
#70=LINE('',#191,#78);
#71=LINE('',#192,#79);
#72=VECTOR('',#142,1.);
#73=VECTOR('',#145,1.);
#74=VECTOR('',#150,1.);
#75=VECTOR('',#151,1.);
#76=VECTOR('',#152,1.);
#77=VECTOR('',#157,1.);
#78=VECTOR('',#162,1.);
#79=VECTOR('',#163,1.);
#80=EDGE_LOOP('',(#20,#21,#22,#23));
#81=EDGE_LOOP('',(#24,#25,#26,#27));
#82=EDGE_LOOP('',(#28,#29,#30,#31));
#83=EDGE_LOOP('',(#32,#33,#34,#35));
#84=EDGE_LOOP('',(#36,#37,#38,#39));
#85=EDGE_LOOP('',(#40,#41,#42,#43));
#86=FACE_BOUND('',#80,.T.);
#87=FACE_BOUND('',#81,.T.);
#88=FACE_BOUND('',#82,.T.);
#89=FACE_BOUND('',#83,.T.);
#90=FACE_BOUND('',#84,.T.);
#91=FACE_BOUND('',#85,.T.);
#92=PLANE('',#128);
#93=PLANE('',#131);
#94=PLANE('',#132);
#95=PLANE('',#135);
#96=ADVANCED_FACE('',(#86),#92,.F.);
#97=ADVANCED_FACE('',(#87),#93,.F.);
#98=ADVANCED_FACE('',(#88),#94,.T.);
#99=ADVANCED_FACE('',(#89),#95,.T.);
#100=ADVANCED_FACE('Face appearance 2',(#90),#12,.F.);
#101=ADVANCED_FACE('Face appearance 1',(#91),#13,.T.);
#102=CLOSED_SHELL('',(#96,#97,#98,#99,#100,#101));
#103=STYLED_ITEM('',(#104),#124);
#104=PRESENTATION_STYLE_ASSIGNMENT((#107));
#105=PRESENTATION_STYLE_ASSIGNMENT((#108));
#106=PRESENTATION_STYLE_ASSIGNMENT((#109));
#107=SURFACE_STYLE_USAGE(.BOTH.,#110);
#108=SURFACE_STYLE_USAGE(.BOTH.,#111);
#109=SURFACE_STYLE_USAGE(.BOTH.,#112);
#110=SURFACE_SIDE_STYLE('',(#113));
#111=SURFACE_SIDE_STYLE('',(#114));
#112=SURFACE_SIDE_STYLE('',(#115));
#113=SURFACE_STYLE_FILL_AREA(#116);
#114=SURFACE_STYLE_FILL_AREA(#117);
#115=SURFACE_STYLE_FILL_AREA(#118);
#116=FILL_AREA_STYLE('',(#119));
#117=FILL_AREA_STYLE('',(#120));
#118=FILL_AREA_STYLE('',(#121));
#119=FILL_AREA_STYLE_COLOUR('',#122);
#120=FILL_AREA_STYLE_COLOUR('',#123);
#121=FILL_AREA_STYLE_COLOUR('',#123);
#122=COLOUR_RGB('',0.713725490196078,0.76078431372549,0.8);
#123=COLOUR_RGB('',0.215686274509804,0.105882352941176,0.47843137254902);
#124=MANIFOLD_SOLID_BREP('Part 1',#102);
#125=SHAPE_DEFINITION_REPRESENTATION(#201,#126);
#126=SHAPE_REPRESENTATION('Part 1',(#127),#196);
#127=AXIS2_PLACEMENT_3D('',#168,#138,#139);
#128=AXIS2_PLACEMENT_3D('',#169,#140,#141);
#129=AXIS2_PLACEMENT_3D('',#173,#143,#144);
#130=AXIS2_PLACEMENT_3D('',#177,#146,#147);
#131=AXIS2_PLACEMENT_3D('',#178,#148,#149);
#132=AXIS2_PLACEMENT_3D('',#184,#153,#154);
#133=AXIS2_PLACEMENT_3D('',#185,#155,#156);
#134=AXIS2_PLACEMENT_3D('',#189,#158,#159);
#135=AXIS2_PLACEMENT_3D('',#190,#160,#161);
#136=AXIS2_PLACEMENT_3D('',#193,#164,#165);
#137=AXIS2_PLACEMENT_3D('',#194,#166,#167);
#138=DIRECTION('',(0.,0.,1.));
#139=DIRECTION('',(1.,0.,0.));
#140=DIRECTION('',(-1.,0.,0.));
#141=DIRECTION('',(0.,0.,1.));
#142=DIRECTION('',(0.,-0.887169396525229,0.461443888104568));
#143=DIRECTION('',(-1.,0.,0.));
#144=DIRECTION('',(0.,0.,1.));
#145=DIRECTION('',(0.,0.859175205819616,0.511681508073939));
#146=DIRECTION('',(1.,0.,0.));
#147=DIRECTION('',(0.,0.887169396525229,-0.461443888104568));
#148=DIRECTION('',(0.,-0.511681508073939,0.859175205819616));
#149=DIRECTION('',(-1.,0.,0.));
#150=DIRECTION('',(-1.,0.,0.));
#151=DIRECTION('',(0.,0.859175205819616,0.511681508073939));
#152=DIRECTION('',(-1.,0.,0.));
#153=DIRECTION('',(-1.,0.,0.));
#154=DIRECTION('',(0.,0.,1.));
#155=DIRECTION('',(-1.,0.,0.));
#156=DIRECTION('',(0.,0.,1.));
#157=DIRECTION('',(0.,-0.887169396525229,0.461443888104568));
#158=DIRECTION('',(1.,0.,0.));
#159=DIRECTION('',(0.,0.887169396525229,-0.461443888104568));
#160=DIRECTION('',(0.,-0.461443888104568,-0.887169396525229));
#161=DIRECTION('',(-1.,0.,0.));
#162=DIRECTION('',(-1.,0.,0.));
#163=DIRECTION('',(-1.,0.,0.));
#164=DIRECTION('',(-1.,0.,0.));
#165=DIRECTION('',(0.,0.,1.));
#166=DIRECTION('',(-1.,0.,0.));
#167=DIRECTION('',(0.,0.,1.));
#168=CARTESIAN_POINT('',(0.,0.,0.));
#169=CARTESIAN_POINT('',(0.,-0.0253031988818588,0.112380721364286));
#170=CARTESIAN_POINT('',(0.,0.190759337266047,2.08166817117217E-16));
#171=CARTESIAN_POINT('',(0.,0.196392862933983,-0.00293016868946384));
#172=CARTESIAN_POINT('',(0.,0.190759337266047,2.08166817117217E-16));
#173=CARTESIAN_POINT('',(0.,-0.0253031988818588,0.112380721364286));
#174=CARTESIAN_POINT('',(0.,-0.240003751319825,-0.0154841212331748));
#175=CARTESIAN_POINT('',(0.,-0.234547988762871,-0.0122349436569053));
#176=CARTESIAN_POINT('',(0.,-0.234547988762871,-0.0122349436569053));
#177=CARTESIAN_POINT('',(0.,-0.0253031988818588,0.112380721364286));
#178=CARTESIAN_POINT('',(-0.01397,-0.234547988762871,-0.0122349436569053));
#179=CARTESIAN_POINT('',(0.,-0.240003751319825,-0.0154841212331748));
#180=CARTESIAN_POINT('',(-0.02794,-0.240003751319825,-0.0154841212331748));
#181=CARTESIAN_POINT('',(-0.02794,-0.234547988762871,-0.0122349436569053));
#182=CARTESIAN_POINT('',(-0.02794,-0.234547988762871,-0.0122349436569053));
#183=CARTESIAN_POINT('',(0.,-0.234547988762871,-0.0122349436569053));
#184=CARTESIAN_POINT('',(-0.02794,-0.0253031988818588,0.112380721364286));
#185=CARTESIAN_POINT('',(-0.02794,-0.0253031988818588,0.112380721364286));
#186=CARTESIAN_POINT('',(-0.02794,0.196392862933983,-0.00293016868946384));
#187=CARTESIAN_POINT('',(-0.02794,0.190759337266047,2.08166817117217E-16));
#188=CARTESIAN_POINT('',(-0.02794,0.190759337266047,2.08166817117217E-16));
#189=CARTESIAN_POINT('',(-0.02794,-0.0253031988818588,0.112380721364286));
#190=CARTESIAN_POINT('',(-0.01397,0.190759337266047,2.08166817117217E-16));
#191=CARTESIAN_POINT('',(0.,0.196392862933983,-0.00293016868946384));
#192=CARTESIAN_POINT('',(0.,0.190759337266047,2.08166817117217E-16));
#193=CARTESIAN_POINT('',(0.,-0.0253031988818588,0.112380721364286));
#194=CARTESIAN_POINT('',(0.,-0.0253031988818588,0.112380721364286));
#195=MECHANICAL_DESIGN_GEOMETRIC_PRESENTATION_REPRESENTATION('',(#103,#14,
#15),#196);
#196=(
GEOMETRIC_REPRESENTATION_CONTEXT(3)
GLOBAL_UNCERTAINTY_ASSIGNED_CONTEXT((#197))
GLOBAL_UNIT_ASSIGNED_CONTEXT((#200,#199,#198))
REPRESENTATION_CONTEXT('Part 1','TOP_LEVEL_ASSEMBLY_PART')
);
#197=UNCERTAINTY_MEASURE_WITH_UNIT(LENGTH_MEASURE(1.E-8),#200,
'DISTANCE_ACCURACY_VALUE','Maximum Tolerance applied to model');
#198=(
NAMED_UNIT(*)
SI_UNIT($,.STERADIAN.)
SOLID_ANGLE_UNIT()
);
#199=(
NAMED_UNIT(*)
PLANE_ANGLE_UNIT()
SI_UNIT($,.RADIAN.)
);
#200=(
LENGTH_UNIT()
NAMED_UNIT(*)
SI_UNIT($,.METRE.)
);
#201=PRODUCT_DEFINITION_SHAPE('','',#202);
#202=PRODUCT_DEFINITION('','',#204,#203);
#203=PRODUCT_DEFINITION_CONTEXT('',#210,'design');
#204=PRODUCT_DEFINITION_FORMATION_WITH_SPECIFIED_SOURCE('','',#206,
 .NOT_KNOWN.);
#205=PRODUCT_RELATED_PRODUCT_CATEGORY('','',(#206));
#206=PRODUCT('Part 1','Part 1','Part 1',(#208));
#207=PRODUCT_CATEGORY('','');
#208=PRODUCT_CONTEXT('',#210,'mechanical');
#209=APPLICATION_PROTOCOL_DEFINITION('international standard',
'ap242_managed_model_based_3d_engineering',2020,#210);
#210=APPLICATION_CONTEXT('managed model based 3d engineering');
ENDSEC;
END-ISO-10303-21;
